<svg width="274" height="60" viewBox="0 0 274 60" fill="none" xmlns="http://www.w3.org/2000/svg">
<g filter="url(#filter0_i_186_841)">
<path d="M103.578 47.3086C104.26 47.4273 105.051 47.4866 105.951 47.4866H108.255C108.81 47.4866 109.172 47.4011 109.343 47.2299C109.514 47.0588 109.62 46.7166 109.663 46.2032C110.047 40.8984 110.452 36.5562 110.879 33.1765C111.143 31.0829 111.449 29.2685 111.795 27.7331C107.425 33.018 104.432 39.6574 103.578 47.3086Z" fill="white"/>
<path d="M111.935 27.136C107.345 32.5222 104.192 39.3533 103.306 47.257C103.087 47.2118 102.881 47.1601 102.686 47.1016C102.532 47.0446 102.383 46.9837 102.239 46.9189L102.455 44.9357C104.227 28.6485 115.685 16.927 129.499 13.064C129.949 13.3645 130.356 13.7157 130.721 14.1176C130.996 14.3935 131.249 14.6977 131.48 15.0301C127.302 16.0831 123.319 17.8461 119.728 20.2312C119.412 20.1769 119.066 20.1497 118.688 20.1497C117.194 20.1497 115.957 20.5134 114.975 21.2406C113.994 21.9679 113.162 23.2941 112.479 25.2193C112.288 25.7935 112.107 26.4324 111.935 27.136Z" fill="white"/>
<path d="M120.106 20.3131C120.875 20.517 121.426 20.9117 121.76 21.4973C122.315 22.3529 122.592 23.3369 122.592 24.4492C122.592 25.5187 122.507 26.8449 122.336 28.4278C122.208 30.0107 122.059 31.6578 121.888 33.369C121.76 35.0374 121.611 36.6417 121.44 38.1818C121.312 39.6791 121.248 40.8984 121.248 41.8396C121.248 42.738 121.333 43.5508 121.504 44.2781C121.717 44.9626 122.059 45.5401 122.528 46.0107C122.998 46.4813 123.659 46.8449 124.512 47.1016C125.366 47.3583 126.475 47.4866 127.841 47.4866H129.889C130.614 47.4866 131.084 47.4011 131.297 47.2299C131.51 47.016 131.617 46.4385 131.617 45.4973C131.617 45.1551 131.66 44.4492 131.745 43.3797C131.83 42.3102 131.937 41.0695 132.065 39.6578C132.193 38.246 132.321 36.7273 132.449 35.1016C132.62 33.4332 132.769 31.8503 132.897 30.3529C133.025 28.8128 133.132 27.4011 133.217 26.1176C133.303 24.8342 133.345 23.8503 133.345 23.1658C133.345 20.984 133.132 19.1658 132.705 17.7112C132.441 16.7842 132.087 15.972 131.643 15.2745C127.547 16.2952 123.639 18.0027 120.106 20.3131Z" fill="white"/>
<path fill-rule="evenodd" clip-rule="evenodd" d="M144.288 14.3545C143.888 14.6605 143.508 14.988 143.147 15.3369C141.995 16.4492 141.035 17.7326 140.267 19.1872C139.499 20.6417 138.901 22.139 138.475 23.6791C138.048 25.2193 137.749 26.7594 137.579 28.2995C137.408 29.7968 137.323 31.1658 137.323 32.4064C137.323 35.1872 137.643 37.5615 138.283 39.5294C138.965 41.4973 139.861 43.123 140.971 44.4064C142.123 45.6898 143.446 46.631 144.939 47.2299C146.475 47.8289 148.076 48.1283 149.74 48.1283C152.087 48.1283 154.028 47.615 155.564 46.5882C157.143 45.5615 158.316 44.2353 159.085 42.6096C159.085 43.5936 159.234 44.4064 159.533 45.0481C159.874 45.6471 160.322 46.139 160.877 46.5241C161.474 46.8663 162.157 47.123 162.925 47.2941C163.736 47.4225 164.589 47.4866 165.485 47.4866H167.789C168.387 47.4866 168.749 47.4011 168.877 47.2299C169.005 47.0588 169.112 46.7166 169.197 46.2032C169.24 45.7326 169.304 44.7914 169.389 43.3797C169.517 41.9251 169.667 40.2139 169.837 38.246C170.008 36.2353 170.179 34.0535 170.35 31.7005L170.699 26.7916C168.97 25.8985 167.272 24.863 165.619 23.6799L162.072 21.1422C156.5 17.155 150.392 14.9732 144.288 14.3545ZM155.308 20.0856C153.132 20.0856 151.51 21.0481 150.444 22.9733C149.42 24.8556 148.908 27.4011 148.908 30.6096C148.908 31.7219 148.972 32.8128 149.1 33.8824C149.27 34.9519 149.548 35.9144 149.932 36.7701C150.316 37.6257 150.828 38.3102 151.468 38.8235C152.151 39.3369 153.004 39.5936 154.028 39.5936C155.863 39.5936 157.399 38.6952 158.636 36.8984C159.874 35.1016 160.493 32.2781 160.493 28.4278C160.493 27.3583 160.429 26.3316 160.301 25.3476C160.173 24.3209 159.917 23.4225 159.533 22.6524C159.149 21.8824 158.615 21.262 157.932 20.7914C157.25 20.3209 156.375 20.0856 155.308 20.0856Z" fill="white"/>
<path fill-rule="evenodd" clip-rule="evenodd" d="M179.844 30.1657C179.626 30.2887 179.414 30.4153 179.208 30.5455C175.752 32.7273 174.023 35.7433 174.023 39.5936C174.023 41.1337 174.258 42.4599 174.727 43.5722C175.239 44.6417 175.901 45.5187 176.712 46.2032C177.565 46.8877 178.546 47.3797 179.656 47.6791C180.808 47.9786 182.024 48.1283 183.304 48.1283C185.95 48.1283 188.083 47.5722 189.705 46.4599C191.369 45.3476 192.713 44.0428 193.737 42.5455C194.079 44.2995 194.761 45.6684 195.785 46.6524C196.809 47.6364 198.346 48.1283 200.394 48.1283C201.845 48.1283 203.061 47.8717 204.042 47.3583C205.066 46.8449 205.856 46.1818 206.41 45.369C207.008 44.5562 207.434 43.6578 207.69 42.6738C207.946 41.6898 208.074 40.7273 208.074 39.7861C208.074 39.4439 207.882 39.2299 207.498 39.1444C207.114 39.0588 206.666 38.9305 206.154 38.7594C205.685 38.5882 205.258 38.2888 204.874 37.861C204.49 37.3904 204.298 36.6203 204.298 35.5508C204.298 35.0802 204.341 34.246 204.426 33.0481C204.554 31.8503 204.682 30.5882 204.81 29.262C204.876 28.7356 204.935 28.2218 204.988 27.7206C197.237 31.1526 188.418 32.1623 179.844 30.1657ZM190.665 32.5348C191.732 32.3636 192.82 32.2781 193.929 32.2781C193.844 33.5187 193.609 34.5882 193.225 35.4866C192.841 36.385 192.372 37.1551 191.817 37.7968C191.305 38.3957 190.708 38.8449 190.025 39.1444C189.342 39.4439 188.659 39.5936 187.977 39.5936C187.251 39.5936 186.569 39.4011 185.928 39.016C185.331 38.631 185.032 37.9465 185.032 36.9626C185.032 36.107 185.288 35.3797 185.8 34.7807C186.312 34.1818 186.974 33.7112 187.785 33.369C188.638 32.984 189.598 32.7059 190.665 32.5348Z" fill="white"/>
<path d="M205.021 27.4033C197.38 30.8223 188.682 31.8663 180.21 29.9652C181.273 29.4011 182.467 28.9174 183.793 28.5139C191.245 29.2408 198.689 27.8058 205.275 24.5864C205.252 24.8394 205.225 25.1145 205.194 25.4118C205.149 26.0512 205.091 26.7151 205.021 27.4033Z" fill="white"/>
<path d="M212.26 23.5573C212.195 24.3873 212.133 25.1766 212.073 25.9251C211.86 29.0909 211.668 31.7219 211.497 33.8182C211.327 35.8717 211.199 37.4973 211.113 38.6952C211.071 39.8503 211.049 40.7487 211.049 41.3904C211.049 42.3743 211.135 43.2513 211.305 44.0214C211.519 44.7487 211.86 45.369 212.329 45.8824C212.841 46.3957 213.503 46.8021 214.314 47.1016C215.167 47.3583 216.255 47.4866 217.578 47.4866H219.882C220.223 47.4866 220.543 47.3797 220.842 47.1658C221.141 46.9519 221.29 46.631 221.29 46.2032C221.29 45.8182 221.333 45.0053 221.418 43.7647C221.504 42.5241 221.61 41.1123 221.738 39.5294C221.866 37.9037 221.994 36.2353 222.122 34.5241C222.293 32.7701 222.421 31.2086 222.506 29.8396C222.72 26.7166 223.21 24.385 223.978 22.8449C224.789 21.262 225.792 20.4706 226.987 20.4706C227.755 20.4706 228.267 20.7701 228.523 21.369C228.779 21.9679 228.907 22.738 228.907 23.6791C228.907 24.1925 228.886 24.6845 228.843 25.1551C228.8 25.6257 228.779 26.139 228.779 26.6952C228.779 26.8663 228.886 27.016 229.099 27.1444C229.312 27.2299 229.568 27.3155 229.867 27.4011L230.763 27.5294H231.659C232.769 27.5294 233.771 27.3155 234.667 26.8877C235.606 26.4171 236.396 25.7968 237.036 25.0267C237.676 24.2139 238.166 23.2941 238.508 22.2674C238.849 21.2406 239.02 20.1497 239.02 18.9947C239.02 17.7112 238.806 16.5989 238.38 15.6578C237.996 14.7166 237.462 13.9465 236.78 13.3476C236.097 12.7487 235.329 12.2995 234.475 12C233.665 11.7005 232.854 11.5508 232.043 11.5508C231.36 11.5508 230.614 11.6578 229.803 11.8717C228.992 12.0428 228.203 12.3636 227.435 12.8342C226.667 13.262 225.92 13.8396 225.195 14.5668C224.512 15.2513 223.914 16.0856 223.402 17.0695C223.317 16.4278 223.146 15.8075 222.89 15.2086C222.687 14.6381 222.348 14.1452 221.874 13.73C219.236 17.5874 215.964 20.8933 212.26 23.5573Z" fill="white"/>
<path d="M221.664 13.5471C219.086 17.3233 215.897 20.568 212.287 23.1957C212.364 22.1997 212.445 21.1466 212.528 20.0365C215.248 17.8981 217.706 15.3982 219.813 12.576L219.818 12.5775C220.558 12.8117 221.173 13.1349 221.664 13.5471Z" fill="white"/>
<path d="M170.721 26.4912C169.039 25.6165 167.388 24.606 165.779 23.4548L162.233 20.9171C156.711 16.9658 150.667 14.7744 144.617 14.1107C145.454 13.5103 146.372 12.9993 147.371 12.5775L147.421 12.5572C152.088 13.5994 156.683 15.5967 160.962 18.6586L164.509 21.1963C166.557 22.6618 168.672 23.9007 170.832 24.9233L170.721 26.4912Z" fill="white"/>
<path d="M102.181 44.9057C103.955 28.5927 115.375 16.8261 129.184 12.8659C128.661 12.5572 128.085 12.3114 127.457 12.1283C126.736 11.9186 125.946 11.766 125.086 11.6705C112.784 16.3697 102.972 27.4825 101.344 42.452L100.947 46.1095C101.246 46.3681 101.589 46.5957 101.976 46.7924L102.181 44.9057Z" fill="white"/>
<path d="M164.669 20.9712C166.673 22.4049 168.741 23.6203 170.853 24.627L170.862 24.5134C170.897 24.0065 170.933 23.5033 170.968 23.0038C168.375 21.8835 165.838 20.459 163.398 18.7127L159.851 16.175C157.154 14.2452 154.332 12.7383 151.445 11.6269C150.15 11.7436 148.964 11.9946 147.887 12.3797C152.448 13.4534 156.935 15.4375 161.122 18.4335L164.669 20.9712Z" fill="white"/>
<path d="M184.532 28.3011C191.751 28.8714 198.936 27.4098 205.304 24.2642C205.359 23.6261 205.386 23.153 205.386 22.8449C205.386 22.3858 205.369 21.94 205.334 21.5075C201.966 23.2906 198.353 24.5979 194.613 25.3763C194.602 25.5501 194.588 25.7116 194.569 25.861C194.569 26.1604 194.548 26.5455 194.505 27.016C190.641 27.1141 187.317 27.5425 184.532 28.3011Z" fill="white"/>
<path d="M212.556 19.6616C215.152 17.5943 217.502 15.1933 219.529 12.4937C218.823 12.3062 217.986 12.2063 217.018 12.1938C215.713 13.7131 214.3 15.1235 212.797 16.4177C212.714 17.5473 212.634 18.6286 212.556 19.6616Z" fill="white"/>
<path d="M124.473 11.613C112.321 16.458 102.687 27.5509 101.07 42.422L100.695 45.8741C100.288 45.4266 99.9775 44.8983 99.7641 44.2891L100.234 39.9717C101.266 30.479 105.589 22.5372 111.751 16.7983C111.793 17.0566 111.823 17.3182 111.839 17.5829C112.323 16.7534 112.833 16.0183 113.368 15.3777C114.685 14.2862 116.074 13.2884 117.521 12.3898C119.01 11.8305 120.764 11.5508 122.784 11.5508C123.372 11.5508 123.935 11.5715 124.473 11.613Z" fill="white"/>
<path d="M180.118 25.6942C181.086 26.0621 182.298 26.246 183.752 26.246C184.206 26.246 184.574 26.2245 184.857 26.1814C183.278 26.1158 181.696 25.9545 180.118 25.6942Z" fill="white"/>
<path d="M185.446 25.9244C183.369 25.8688 181.283 25.647 179.207 25.2509C178.316 24.7016 177.725 23.925 177.434 22.9211C180.336 23.523 183.259 23.7843 186.155 23.7275C186.004 24.2317 185.864 24.7717 185.736 25.3476C185.682 25.5913 185.586 25.7836 185.446 25.9244Z" fill="white"/>
<path d="M205.307 21.2087C201.954 22.9964 198.353 24.3082 194.626 25.0908C194.631 24.9482 194.633 24.7985 194.633 24.6417C194.633 23.9141 194.561 23.2651 194.416 22.6946C198.048 21.8503 201.549 20.5058 204.81 18.7102C205.052 19.4852 205.217 20.318 205.307 21.2087Z" fill="white"/>
<path d="M216.654 12.1925C215.462 13.5629 214.182 14.8429 212.826 16.0269C212.873 15.3844 212.921 14.7266 212.969 14.0535C213.055 12.8128 213.503 12.1925 214.314 12.1925H216.654Z" fill="white"/>
<path d="M170.989 22.7112C168.444 21.6045 165.954 20.2022 163.558 18.4875L160.814 16.5242C160.837 16.0766 160.86 15.6445 160.883 15.2278L162.287 16.2324C165.119 18.2587 168.08 19.8518 171.109 21.0389C171.069 21.5916 171.029 22.149 170.989 22.7112Z" fill="white"/>
<path d="M160.805 16.5179L160.012 15.9498C157.463 14.1262 154.803 12.6775 152.083 11.5808C152.446 11.5608 152.817 11.5508 153.196 11.5508C154.146 11.5508 155.012 11.6272 155.793 11.7799C156.789 12.3646 157.773 13.0024 158.741 13.6947L160.247 14.7725C160.495 15.2838 160.681 15.8656 160.805 16.5179Z" fill="white"/>
<path d="M99.9594 39.9417C101.007 30.3122 105.415 22.2668 111.692 16.4763C111.631 16.1777 111.552 15.8834 111.455 15.5936C111.295 15.0812 111.052 14.6288 110.725 14.2363C105.604 18.9756 101.742 25.2297 99.9649 32.6278C99.9326 33.0421 99.901 33.4389 99.8701 33.8182C99.6994 35.8717 99.5714 37.4973 99.4861 38.6952C99.4434 39.8503 99.4221 40.7487 99.4221 41.3904C99.4221 42.1501 99.473 42.8461 99.5747 43.4784L99.9594 39.9417Z" fill="white"/>
<path d="M158.901 13.4695L159.925 14.2024C159.51 13.5662 158.974 13.0673 158.316 12.7059C157.837 12.4174 157.298 12.183 156.698 12.0026C157.441 12.4615 158.175 12.9503 158.901 13.4695Z" fill="white"/>
<path d="M162.447 16.0072L160.901 14.9009C160.927 14.4506 160.952 14.019 160.977 13.6062L161.176 13.7487C164.399 16.0548 167.789 17.7998 171.257 19.0239C171.214 19.5939 171.172 20.1692 171.13 20.7497C168.149 19.5741 165.235 18.002 162.447 16.0072Z" fill="white"/>
<path d="M177.358 22.6222C180.313 23.2459 183.292 23.5134 186.241 23.4487C186.265 23.375 186.289 23.3021 186.312 23.2299C186.526 22.5882 186.803 22.0535 187.145 21.6257C187.282 21.4367 187.436 21.2649 187.607 21.1105C184.188 21.3996 180.707 21.2482 177.251 20.6181C177.233 20.8451 177.224 21.074 177.224 21.3048C177.224 21.7779 177.269 22.217 177.358 22.6222Z" fill="white"/>
<path d="M194.342 22.4279C197.97 21.5857 201.468 20.2406 204.723 18.4426C204.452 17.6475 204.099 16.9156 203.663 16.2468C200.171 18.1649 196.403 19.5662 192.497 20.3902C193.124 20.5909 193.581 20.9171 193.865 21.369C194.062 21.681 194.221 22.0339 194.342 22.4279Z" fill="white"/>
<path d="M110.54 14.0303C105.723 18.4875 102.011 24.2752 100.082 31.0892C100.196 29.564 100.317 27.8427 100.446 25.9251C100.472 25.5964 100.499 25.2599 100.526 24.9154C102.415 20.2351 105.192 16.1373 108.589 12.7423C109.317 13.03 109.91 13.4029 110.367 13.861C110.427 13.916 110.485 13.9724 110.54 14.0303Z" fill="white"/>
<path d="M171.278 18.7377C167.859 17.5233 164.516 15.7983 161.337 13.5236L160.997 13.2808C161.021 12.9014 161.045 12.5386 161.069 12.1925L161.084 11.9745C164.394 14.1997 167.868 15.8494 171.41 16.966L171.374 17.4545C171.342 17.8793 171.31 18.307 171.278 18.7377Z" fill="white"/>
<path d="M188.017 20.7956C184.475 21.1343 180.863 20.9971 177.277 20.3414C177.353 19.6757 177.507 19.027 177.74 18.3952C186.093 19.5616 194.512 17.9755 201.8 14.1692C201.933 14.277 202.062 14.3882 202.186 14.5027C202.685 14.9628 203.125 15.4675 203.508 16.0165C199.871 18.0108 195.935 19.4411 191.855 20.2383C191.498 20.1792 191.102 20.1497 190.665 20.1497C189.769 20.1497 189.043 20.2781 188.489 20.5348C188.322 20.612 188.164 20.699 188.017 20.7956Z" fill="white"/>
<path d="M100.595 24.0313C102.468 19.68 105.112 15.8486 108.304 12.6362C107.601 12.3792 106.723 12.2338 105.67 12.2001C103.871 14.2779 102.289 16.5762 100.973 19.0731C100.839 20.8663 100.713 22.519 100.595 24.0313Z" fill="white"/>
<path d="M161.105 11.6553C164.413 13.8975 167.888 15.5588 171.432 16.6823C171.479 16.0536 171.524 15.4457 171.568 14.8587C168.02 13.871 164.528 12.3577 161.187 10.2769C161.163 10.7235 161.135 11.1829 161.105 11.6553Z" fill="white"/>
<path d="M177.843 18.1298C186.075 19.2651 194.368 17.7104 201.561 13.9821C200.802 13.4114 199.911 12.9412 198.886 12.5714C192.741 15.4046 185.894 16.7032 179.015 16.1703C178.673 16.5927 178.374 17.0422 178.12 17.5187C178.019 17.7206 177.927 17.9243 177.843 18.1298Z" fill="white"/>
<path d="M105.312 12.193C103.692 14.0867 102.251 16.1596 101.024 18.3956C101.125 17.027 101.232 15.5796 101.342 14.0535L101.343 14.0373C101.743 13.4077 102.161 12.7928 102.596 12.1931L102.639 12.1927L102.686 12.1925H105.183C105.226 12.1925 105.269 12.1927 105.312 12.193Z" fill="white"/>
<path d="M171.589 14.577C168.038 13.5831 164.544 12.0588 161.204 9.96133C161.226 9.53804 161.245 9.12669 161.261 8.72727L161.278 8.5133C164.653 10.4592 168.168 11.8426 171.728 12.7056C171.684 13.3033 171.637 13.9271 171.589 14.577Z" fill="white"/>
<path d="M198.506 12.4409C192.531 15.1437 185.902 16.3911 179.236 15.909C179.707 15.3727 180.252 14.8826 180.872 14.4385C181.185 14.211 181.518 13.9958 181.87 13.7929C186.007 13.6954 190.085 12.949 193.957 11.6194C195.678 11.7384 197.195 12.0123 198.506 12.4409Z" fill="white"/>
<path d="M101.382 13.4672C101.661 13.0412 101.948 12.6221 102.243 12.21C101.945 12.2371 101.752 12.2954 101.662 12.385C101.531 12.5169 101.437 12.8777 101.382 13.4672Z" fill="white"/>
<path d="M161.302 8.20791C164.674 10.1665 168.188 11.5582 171.748 12.4256L171.822 11.4225C171.844 11.1074 171.866 10.8035 171.887 10.5108C168.333 9.7742 164.813 8.52658 161.42 6.72662L161.302 8.20791Z" fill="white"/>
<path d="M182.409 13.4994C186.096 13.3613 189.731 12.705 193.207 11.5779C192.777 11.5599 192.335 11.5508 191.881 11.5508C189.449 11.5508 187.315 11.8075 185.48 12.3209C184.341 12.6395 183.318 13.0324 182.409 13.4994Z" fill="white"/>
<path d="M171.907 10.2321C168.354 9.49205 164.835 8.23734 161.444 6.42604L161.517 5.51871C161.533 5.31193 161.55 5.09954 161.566 4.88156C164.978 6.5409 168.504 7.6566 172.053 8.26962C172.008 8.85138 171.96 9.50554 171.907 10.2321Z" fill="white"/>
<path d="M93.8304 32.8186C94.0513 30.0591 94.238 27.7612 94.3906 25.9251C94.5613 23.8289 94.668 22.2032 94.7106 21.0481C94.7827 20.0365 94.8243 19.2232 94.8356 18.6082C94.2422 20.6718 93.8138 22.8307 93.5695 25.0765L92.4892 35.0094C91.9873 39.6247 90.508 43.8248 88.3036 47.467C88.5524 47.4801 88.8106 47.4866 89.0781 47.4866H90.4443C91.9296 44.4505 92.9313 41.0858 93.3253 37.463L93.8304 32.8186Z" fill="white"/>
<path d="M90.7516 47.4866C92.0018 44.9013 92.9053 42.0819 93.3877 39.0708C93.2477 41.0584 93.0913 43.2434 92.9185 45.6257C92.8331 46.5241 92.7265 47.0588 92.5984 47.2299C92.5131 47.4011 92.1717 47.4866 91.5744 47.4866H90.7516Z" fill="white"/>
<path d="M93.2952 25.0465C93.5748 22.4755 94.0941 20.0173 94.8245 17.6849C94.7891 16.9506 94.6871 16.2962 94.5186 15.7219C94.4378 15.3573 94.3187 15.0215 94.1614 14.7145C93.3386 17.1995 92.759 19.8321 92.4584 22.5962L91.3781 32.529C90.7797 38.0316 88.792 42.944 85.8425 47.0243L85.8778 47.0374C86.4774 47.2478 87.1822 47.3843 87.9923 47.4469C90.2182 43.8095 91.7119 39.6049 92.2149 34.9794L93.2952 25.0465Z" fill="white"/>
<path d="M161.588 4.58455C164.998 6.25456 168.525 7.37657 172.074 7.99214C172.098 7.67975 172.12 7.39004 172.142 7.123L172.232 5.99C168.679 5.49823 165.138 4.5088 161.701 2.9808C161.663 3.54418 161.626 4.07876 161.588 4.58455Z" fill="white"/>
<path d="M93.9771 14.3948C93.1071 16.966 92.4963 19.6957 92.1841 22.5662L91.1038 32.499C90.508 37.9773 88.5226 42.8652 85.5771 46.9196C84.902 46.6391 84.3409 46.2934 83.8937 45.8824C83.8571 45.8487 83.8213 45.8147 83.7862 45.7802C87.2555 41.4706 89.6074 36.1174 90.2677 30.0454L91.348 20.1126C91.6104 17.6995 92.0855 15.3868 92.7493 13.1849C93.0362 13.3632 93.2846 13.5671 93.4945 13.7968C93.6771 13.9798 93.838 14.1792 93.9771 14.3948Z" fill="white"/>
<path d="M172.254 5.71338C168.7 5.21988 165.157 4.22475 161.72 2.68644C161.738 2.41761 161.755 2.14245 161.773 1.86096C161.787 1.53749 161.81 1.25951 161.839 1.027C165.168 2.37176 168.581 3.22318 171.998 3.61762C172.179 4.21501 172.27 4.84871 172.27 5.51871L172.254 5.71338Z" fill="white"/>
<path d="M91.0737 20.0826C91.3405 17.6297 91.8253 15.2796 92.5036 13.0434C92.2079 12.8858 91.8769 12.7519 91.5104 12.6417C91.3923 12.5981 91.2687 12.5576 91.1397 12.5204C90.7323 14.1673 90.4284 15.8715 90.2372 17.6289L89.157 27.5618C88.4909 33.6863 86.1038 39.0797 82.585 43.4083C82.644 43.6805 82.7175 43.949 82.8056 44.2139C82.9746 44.7224 83.2374 45.1771 83.594 45.5781C87.0191 41.3127 89.3406 36.0186 89.9934 30.0154L91.0737 20.0826Z" fill="white"/>
<path d="M161.883 0.7461C165.166 2.07868 168.533 2.92741 171.904 3.32772C171.687 2.70024 171.339 2.14715 170.862 1.66845C170.626 1.43219 170.354 1.21857 170.046 1.02762C168.37 0.797207 166.697 0.456098 165.036 0H163.117C162.776 0 162.541 0.0213905 162.413 0.0641707C162.285 0.0641707 162.178 0.106952 162.093 0.192512C162.007 0.278905 161.937 0.463436 161.883 0.7461Z" fill="white"/>
<path d="M90.8728 12.4497C90.462 14.1097 90.1556 15.8275 89.9629 17.5989L88.8827 27.5318C88.2319 33.5154 85.9233 38.7947 82.5166 43.0529C82.4706 42.7804 82.439 42.5043 82.4215 42.2246C81.7815 43.3369 81.0561 44.2781 80.2453 45.0481C79.4772 45.8182 78.6665 46.4385 77.8131 46.9091C76.9597 47.3369 76.0849 47.6364 75.1889 47.8075C74.449 47.9841 73.7236 48.0878 73.0128 48.1186C81.0014 43.5266 86.9319 35.3272 88.0462 25.0814L89.1265 15.1486C89.2337 14.1631 89.3763 13.1943 89.5528 12.2429C90.0384 12.2852 90.4784 12.3541 90.8728 12.4497Z" fill="white"/>
<path d="M169.291 0.635853C168.252 0.470904 167.213 0.262723 166.179 0.0102678C167.211 0.0486983 168.089 0.195008 168.813 0.449197C168.979 0.507376 169.139 0.569601 169.291 0.635853Z" fill="white"/>
<path d="M88.8522 15.1186C88.959 14.1363 89.1008 13.1706 89.276 12.222C88.9708 12.2023 88.6488 12.1925 88.3101 12.1925H88.07C88.051 12.3496 88.0329 12.507 88.0157 12.665L86.9355 22.5978C85.6599 34.3267 78.0728 43.3738 68.3119 47.3976C69.5327 47.8713 70.9066 48.1146 72.4336 48.1278C80.572 43.6288 86.6473 35.3919 87.7719 25.0515L88.8522 15.1186Z" fill="white"/>
<path d="M87.792 12.1925C87.7744 12.3396 87.7575 12.4871 87.7414 12.635L86.6612 22.5678C85.3863 34.2901 77.749 43.309 67.9564 47.2437C66.9624 46.7847 66.0891 46.2183 65.3363 45.5444C69.2286 44.2259 72.8313 42.1265 75.9013 39.3839C76.2921 39.4809 76.716 39.5294 77.173 39.5294C78.3251 39.5294 79.2852 39.0802 80.0533 38.1818C80.8641 37.2406 81.5041 36.0428 81.9735 34.5882C82.4825 33.0998 82.8861 31.4212 83.1842 29.5524C84.5216 26.652 85.4267 23.4671 85.7978 20.0553L86.6529 12.1925H87.792Z" fill="white"/>
<path d="M86.0059 12.1925H86.3753L85.5234 20.0253C85.1948 23.0473 84.4433 25.8897 83.341 28.5116C83.5615 26.958 83.7244 25.39 83.8297 23.8075C83.9084 22.9192 83.9781 22.0447 84.0387 21.1837C84.3147 19.9927 84.5235 18.7681 84.6601 17.5128L85.2188 12.3748C85.4206 12.2533 85.6829 12.1925 86.0059 12.1925Z" fill="white"/>
<path d="M74.0368 38.3102C74.4667 38.7651 74.9835 39.0928 75.5873 39.2931C72.5358 41.9877 68.9619 44.0453 65.105 45.3303C65.052 45.2796 64.9996 45.2283 64.9479 45.1765C64.396 44.5955 63.9244 43.9429 63.5332 43.2188C67.2189 42.0641 70.6613 40.2138 73.659 37.7818C73.7716 37.9698 73.8975 38.1459 74.0368 38.3102Z" fill="white"/>
<path d="M57.4927 45.369C57.1027 45.9405 56.5966 46.4381 55.9744 46.8616C52.5778 46.8938 49.1127 46.3392 45.7107 45.1236C45.37 44.4992 45.1052 43.7893 44.9163 42.9937C49.312 44.4903 53.8026 44.9016 58.1108 44.3845C57.9305 44.7256 57.7245 45.0537 57.4927 45.369Z" fill="white"/>
<path d="M43.0808 44.0439C43.2089 44.1035 43.3372 44.1621 43.4656 44.2198C43.8708 43.7921 44.2436 43.3451 44.5842 42.8785C43.6597 42.5519 42.7398 42.177 41.8269 41.7523L41.9431 41.5014C42.8727 41.9339 43.8097 42.3143 44.7514 42.6442L44.784 42.5973L44.8196 42.5455C44.8282 42.5896 44.837 42.6335 44.846 42.6771C49.3138 44.2258 53.8841 44.6398 58.26 44.0873C58.4737 43.6375 58.6447 43.1664 58.7729 42.6738C58.8733 42.2877 58.9541 41.9049 59.0151 41.5254C53.1356 42.6457 46.8213 42.0315 40.8097 39.2654C40.2262 39.4842 39.6426 39.5936 39.0591 39.5936C38.3337 39.5936 37.6509 39.4011 37.0109 39.016C36.4135 38.631 36.1148 37.9465 36.1148 36.9626C36.1148 36.107 36.3708 35.3797 36.8829 34.7807C37.3949 34.1818 38.0563 33.7112 38.867 33.369C39.3388 33.1561 39.8432 32.976 40.3801 32.8285C39.3392 32.4747 38.3036 32.06 37.277 31.5824L37.3931 31.3314C38.5456 31.8676 39.7096 32.3238 40.8797 32.7029C41.1606 32.6385 41.4498 32.5825 41.7473 32.5348C42.8141 32.3636 43.9022 32.2781 45.0116 32.2781C44.9773 32.7773 44.9187 33.2488 44.836 33.6927C48.4286 34.3334 52.0228 34.2879 55.4678 33.6417C55.4801 33.4549 55.4937 33.257 55.5086 33.0481C55.5764 32.4135 55.6442 31.7608 55.712 31.0901C49.4458 32.5613 42.6136 32.052 36.1388 29.0398L36.255 28.7889C42.7023 31.7883 49.5073 32.2831 55.7414 30.7988C55.7918 30.2965 55.8422 29.7842 55.8926 29.262C55.9388 28.8917 55.9818 28.5277 56.0217 28.17C50.3451 29.8024 44.1292 29.7943 38.0924 27.7393C34.9235 28.327 32.3228 29.2624 30.2903 30.5455C26.8339 32.7273 25.1058 35.7433 25.1058 39.5936C25.1058 41.1337 25.3405 42.4599 25.8099 43.5722C26.3219 44.6417 26.9833 45.5187 27.794 46.2032C28.6474 46.8877 29.6289 47.3797 30.7383 47.6791C31.8904 47.9786 33.1065 48.1283 34.3866 48.1283C37.0322 48.1283 39.1657 47.5722 40.7872 46.4599C41.7104 45.8428 42.5351 45.1665 43.2613 44.431C43.1623 44.3862 43.0635 44.3408 42.9646 44.2948L43.0808 44.0439Z" fill="white"/>
<path d="M55.5314 47.1393C52.3492 47.1218 49.1127 46.5929 45.9274 45.4929C46.2 45.9255 46.5135 46.312 46.8678 46.6524C47.8919 47.6364 49.428 48.1283 51.4762 48.1283C52.927 48.1283 54.1431 47.8717 55.1245 47.3583C55.2646 47.2881 55.4002 47.2151 55.5314 47.1393Z" fill="white"/>
<path d="M84.909 12.6712C84.7391 12.9063 84.6353 13.1745 84.5977 13.4759C84.4697 14.8021 84.3417 16.385 84.2137 18.2246C84.2002 18.5089 84.1856 18.7947 84.17 19.0822C84.2551 18.5549 84.3271 18.0217 84.3857 17.4828L84.909 12.6712Z" fill="white"/>
<path d="M73.523 37.5362C73.1525 36.8114 72.9613 35.928 72.9493 34.8861C69.8957 37.4567 66.357 39.4119 62.5553 40.6259C62.6624 41.0839 62.7985 41.5312 62.9637 41.9679C63.0951 42.3152 63.2416 42.6491 63.4031 42.9696C67.0891 41.8216 70.5306 39.9719 73.523 37.5362Z" fill="white"/>
<path d="M73.1407 31.4439C73.0277 32.803 72.9646 33.829 72.9513 34.5218C69.8912 37.139 66.3286 39.1271 62.4955 40.3546C62.3383 39.5948 62.2597 38.8064 62.2597 37.9893C62.2597 37.9303 62.2599 37.8674 62.2604 37.8007C66.3168 36.3734 70.0481 34.095 73.1757 31.1233C73.1641 31.2307 73.1525 31.3375 73.1407 31.4439Z" fill="white"/>
<path d="M59.1569 39.7861C59.1569 40.2637 59.1239 40.7467 59.058 41.2353C53.282 42.3551 47.078 41.785 41.1598 39.121C41.7615 38.8485 42.2961 38.4582 42.7635 37.9501C47.8356 39.6531 53.0305 39.9142 57.9228 38.9742C58.1598 39.0427 58.3792 39.0995 58.5808 39.1444C58.9649 39.2299 59.1569 39.4439 59.1569 39.7861Z" fill="white"/>
<path d="M73.2209 30.6966C73.3418 29.5358 73.451 28.3168 73.5486 27.0397C70.4422 30.4434 66.5995 33.0914 62.3565 34.7938C62.3455 34.963 62.3346 35.1298 62.3237 35.2941C62.2917 36.2235 62.2717 36.9608 62.2637 37.5061C66.3489 36.0534 70.0983 33.7287 73.2209 30.6966Z" fill="white"/>
<path d="M57.3515 38.7974C57.3136 38.7849 57.2753 38.7723 57.2367 38.7594C56.7673 38.5882 56.3406 38.2888 55.9566 37.861C55.7207 37.5719 55.5573 37.1698 55.4663 36.6548C51.7405 37.2 47.8644 37.0506 44.0202 36.1035C43.7122 36.7114 43.3591 37.2517 42.9611 37.7244C47.7724 39.3192 52.6924 39.6072 57.3515 38.7974Z" fill="white"/>
<path d="M73.5887 26.5027L73.5823 26.5896C70.4929 30.0564 66.641 32.7549 62.3761 34.4876C62.4314 33.616 62.4867 32.6815 62.542 31.6841C66.9696 29.6608 70.9025 26.5865 73.9345 22.6911C73.8311 23.926 73.7158 25.1966 73.5887 26.5027Z" fill="white"/>
<path d="M55.3806 35.5508C55.3806 35.8511 55.3957 36.1278 55.426 36.3809C51.7537 36.9182 47.934 36.7745 44.1447 35.8491C44.2006 35.7307 44.2549 35.6099 44.3075 35.4866C44.5051 35.0244 44.6632 34.5169 44.7817 33.9641C48.3858 34.6077 51.9916 34.567 55.4495 33.9266C55.4035 34.664 55.3806 35.2054 55.3806 35.5508Z" fill="white"/>
<path d="M73.9766 22.182C73.9972 21.9309 74.0172 21.6813 74.0368 21.4332C74.1831 20.0393 74.2667 18.9127 74.2876 18.0535C71.3945 22.5113 67.3929 26.0775 62.7782 28.4715C62.712 29.3354 62.6459 30.1765 62.5797 30.9947L62.5592 31.3718C67.0203 29.3074 70.9681 26.1637 73.9766 22.182Z" fill="white"/>
<path d="M73.9727 15.4011C74.1766 16.0141 74.283 16.7246 74.2921 17.5328C71.4399 22.0734 67.4383 25.7087 62.803 28.1466C62.8566 27.4425 62.9102 26.7234 62.9637 25.9893C62.9835 25.7127 63.0027 25.4387 63.0213 25.1672C67.3408 22.6364 71.0452 19.0451 73.6924 14.6436C73.8122 14.8795 73.9057 15.132 73.9727 15.4011Z" fill="white"/>
<path d="M73.5355 14.3675C73.3743 14.1129 73.1787 13.8799 72.9487 13.6684C72.6904 13.4095 72.374 13.1829 71.9994 12.9888C69.6958 16.5321 66.6914 19.5111 63.2356 21.7847C63.1796 22.7619 63.1158 23.7779 63.0442 24.8327C67.2981 22.3048 70.9402 18.7343 73.5355 14.3675Z" fill="white"/>
<path d="M56.0544 27.8725C56.1467 27.0156 56.2208 26.1954 56.2766 25.4118L56.3 25.1825C52.9038 26.3415 49.2858 26.9056 45.6076 26.7834C45.6016 26.8585 45.5949 26.936 45.5877 27.016C43.0471 27.0805 40.7399 27.2878 38.6659 27.6378C44.5333 29.5249 50.5522 29.477 56.0544 27.8725Z" fill="white"/>
<path d="M70.9645 12.5775C71.2469 12.6625 71.5083 12.7591 71.7486 12.8675C69.5067 16.3069 66.5979 19.2083 63.2552 21.4401C63.265 21.2654 63.2745 21.092 63.2838 20.9198C63.3609 19.9662 63.4303 19.0825 63.4919 18.2686C65.7677 16.5832 67.8164 14.5769 69.5582 12.2948C70.0821 12.3589 70.5508 12.4531 70.9645 12.5775Z" fill="white"/>
<path d="M56.4687 22.8449C56.4687 23.245 56.4224 23.9232 56.3299 24.8798C52.9339 26.0544 49.3113 26.6281 45.6277 26.507C45.6437 26.2596 45.6517 26.0443 45.6517 25.861C45.6943 25.5187 45.7157 25.1123 45.7157 24.6417C45.7157 24.5107 45.7133 24.3822 45.7086 24.2562C49.4282 24.2247 53.067 23.4959 56.4556 22.1658C56.4643 22.3888 56.4687 22.6152 56.4687 22.8449Z" fill="white"/>
<path d="M33.98 23.7039C34.9541 24.1571 35.9364 24.5531 36.9237 24.8938C37.0671 24.2981 37.2242 23.7435 37.3949 23.2299L37.4128 23.1768L37.4215 23.1515C35.8444 22.7103 34.275 22.1329 32.7262 21.4124L32.8423 21.1614C34.3845 21.8789 35.9471 22.453 37.5174 22.891C37.7111 22.3976 37.9476 21.9758 38.227 21.6257C38.3481 21.4587 38.4826 21.3052 38.6306 21.1652C36.2656 20.7043 33.9042 19.9472 31.5884 18.8699L31.7046 18.6189C34.0707 19.7197 36.485 20.4831 38.9015 20.9352C39.1041 20.781 39.3273 20.6476 39.5711 20.5348C40.1258 20.2781 40.8512 20.1497 41.7473 20.1497C43.3688 20.1497 44.4356 20.5562 44.9476 21.369L44.9711 21.4067L44.9855 21.4304C48.8107 21.3439 52.5426 20.5145 55.9924 19.0489C55.7598 18.2105 55.4419 17.4371 55.0389 16.7285C47.5369 19.9397 38.7035 20.1667 30.4507 16.3274L30.5669 16.0764C38.7321 19.875 47.471 19.6565 54.8974 16.4882C54.45 15.7536 53.907 15.0917 53.2684 14.5027L53.2273 14.465C46.5598 17.1325 38.9063 17.4659 31.5681 14.7287C30.5601 15.5234 29.7714 16.4534 29.2022 17.5187C28.6048 18.7166 28.3061 19.9786 28.3061 21.3048C28.3061 24.5989 30.4823 26.246 34.8347 26.246C35.4747 26.246 35.9441 26.2032 36.2428 26.1176C36.5415 25.9893 36.7335 25.7326 36.8189 25.3476C36.8325 25.2861 36.8462 25.2251 36.8601 25.1644C35.8552 24.8187 34.8553 24.4161 33.8638 23.9549L33.98 23.7039Z" fill="white"/>
<path d="M69.2365 12.2598C68.7654 12.215 68.2533 12.1925 67.7002 12.1925H66.3437C65.5483 13.0324 64.7073 13.8241 63.826 14.5646C63.7781 15.0829 63.704 15.8109 63.6038 16.7487C63.5777 17.1154 63.5495 17.5002 63.5194 17.9031C65.6538 16.2962 67.5823 14.4022 69.2365 12.2598Z" fill="white"/>
<path d="M56.4416 21.874C56.3898 20.9658 56.2639 20.1142 56.0638 19.319C52.6358 20.7702 48.9327 21.5992 45.1361 21.7036C45.4482 22.3252 45.6343 23.0839 45.6943 23.9795C49.4157 23.9495 53.0558 23.215 56.4416 21.874Z" fill="white"/>
<path d="M65.652 12.1925H65.9614C65.2919 12.8872 64.5907 13.5478 63.8609 14.1726C63.9465 13.4077 64.1169 12.8974 64.3719 12.6417C64.6279 12.3422 65.0546 12.1925 65.652 12.1925Z" fill="white"/>
<path d="M50.1287 12.6304C51.246 13.0509 52.2009 13.5942 52.9932 14.2604C46.4677 16.8356 39.001 17.1585 31.8285 14.5301C31.8701 14.4993 31.9121 14.4688 31.9544 14.4385C32.5551 14.0024 33.2262 13.6116 33.9677 13.2662C39.4737 14.5856 45.0389 14.2728 50.1287 12.6304Z" fill="white"/>
<path d="M49.6969 12.4767C47.8607 11.8595 45.6162 11.5508 42.9634 11.5508C40.5312 11.5508 38.3977 11.8075 36.5628 12.3209C35.7832 12.539 35.0575 12.7919 34.3857 13.0795C39.6003 14.2618 44.8581 13.9736 49.6969 12.4767Z" fill="white"/>
<path d="M1.53614 46.0749C2.56023 47.016 4.26706 47.4866 6.65661 47.4866H18.8177C20.7379 47.4866 21.9967 47.1016 22.5941 46.3316C23.2341 45.5187 23.5968 44.4706 23.6822 43.1872L23.9382 39.4011C23.9382 39.1016 23.8315 38.8877 23.6182 38.7594C23.4048 38.5882 23.1701 38.5027 22.9141 38.5027H11.393L13.5052 8.53476V7.95722C13.5479 7.7861 13.5692 7.59358 13.5692 7.37968C13.5692 5.58289 13.0999 4.23529 12.1611 3.3369C11.265 2.39572 9.62221 1.92513 7.23266 1.92513H3.71234C3.02961 1.92513 2.68825 2.24599 2.68825 2.8877C2.68825 3.61497 2.62424 4.96257 2.49623 6.93048C2.36822 8.8984 2.19753 11.1872 1.98418 13.7968C1.77083 16.4064 1.55748 19.1872 1.34412 22.139C1.13077 25.0909 0.917417 27.8931 0.704064 30.5455C0.490711 33.1979 0.320029 35.5722 0.192017 37.6685C0.0640058 39.7219 0 41.1765 0 42.0321C0 43.7861 0.512047 45.1337 1.53614 46.0749Z" fill="white"/>
<path d="M252.622 21.6257C252.75 20.2567 252.814 19.0802 252.814 18.0963C252.814 17.1551 252.729 16.3209 252.558 15.5936C252.387 14.8235 252.046 14.2032 251.534 13.7326C251.065 13.2192 250.403 12.8342 249.55 12.5775C248.696 12.3209 247.587 12.1925 246.221 12.1925H244.173C243.064 12.1925 242.466 12.8556 242.381 14.1818C242.21 16.2353 242.04 18.246 241.869 20.2139C241.741 22.1818 241.613 24.0214 241.485 25.7326C241.357 27.4011 241.25 28.9198 241.165 30.2888C241.08 31.615 241.037 32.6845 241.037 33.4973C241.037 35.6791 241.293 37.5401 241.805 39.0802C242.317 40.6203 243.043 41.8824 243.981 42.8663C244.92 43.8075 246.029 44.492 247.31 44.9198C248.632 45.3476 250.083 45.5615 251.662 45.5615C252.473 45.5615 253.326 45.4973 254.222 45.369C255.118 45.2406 256.014 44.984 256.91 44.5989C257.807 44.1711 258.66 43.5936 259.471 42.8663C260.324 42.0963 261.092 41.1123 261.775 39.9144C261.775 41.1979 261.69 42.5455 261.519 43.9572C261.348 45.369 260.985 46.6738 260.431 47.8717C259.919 49.0695 259.172 50.0535 258.191 50.8235C257.209 51.5936 255.929 51.9786 254.35 51.9786C252.558 51.9786 251.214 51.7647 250.318 51.3369C249.422 50.9091 248.76 50.4171 248.334 49.861C247.95 49.3476 247.651 48.877 247.438 48.4492C247.267 48.0214 246.968 47.8075 246.542 47.8075C245.688 47.8075 244.856 47.8931 244.045 48.0642C243.277 48.2781 242.594 48.5775 241.997 48.9626C241.4 49.3476 240.909 49.8396 240.525 50.4385C240.184 51.0374 240.013 51.7433 240.013 52.5561C240.013 53.5829 240.376 54.5455 241.101 55.4439C241.869 56.3423 242.915 57.1337 244.237 57.8182C245.56 58.5027 247.118 59.0374 248.91 59.4225C250.745 59.8075 252.75 60 254.926 60C256.974 60 258.98 59.7861 260.943 59.3583C262.906 58.9305 264.677 58.1604 266.255 57.0481C267.834 55.9786 269.136 54.5027 270.16 52.6203C271.226 50.7807 271.866 48.4492 272.08 45.6257C272.421 40.7915 272.72 36.7059 272.976 33.369C273.232 29.9893 273.424 27.2086 273.552 25.0267C273.723 22.8021 273.829 21.1123 273.872 19.9572C273.957 18.7594 274 17.9465 274 17.5187C274 16.4492 273.829 15.5722 273.488 14.8877C273.147 14.2032 272.677 13.6684 272.08 13.2834C271.482 12.8556 270.778 12.5775 269.968 12.4492C269.2 12.2781 268.367 12.1925 267.471 12.1925H265.167C264.826 12.1925 264.506 12.2995 264.207 12.5134C263.951 12.6845 263.802 13.0054 263.759 13.4759L262.735 25.4759C262.436 28.9412 261.69 31.7219 260.495 33.8182C259.3 35.9144 257.7 36.9626 255.694 36.9626C254.542 36.9626 253.561 36.5775 252.75 35.8075C251.982 34.9947 251.598 33.7754 251.598 32.1497C251.598 31.508 251.662 30.6096 251.79 29.4545C251.918 28.2567 252.046 26.9947 252.174 25.6684C252.345 24.2995 252.494 22.9519 252.622 21.6257Z" fill="white"/>
</g>
<defs>
<filter id="filter0_i_186_841" x="0" y="0" width="274" height="64" filterUnits="userSpaceOnUse" color-interpolation-filters="sRGB">
<feFlood flood-opacity="0" result="BackgroundImageFix"/>
<feBlend mode="normal" in="SourceGraphic" in2="BackgroundImageFix" result="shape"/>
<feColorMatrix in="SourceAlpha" type="matrix" values="0 0 0 0 0 0 0 0 0 0 0 0 0 0 0 0 0 0 127 0" result="hardAlpha"/>
<feOffset dy="4"/>
<feGaussianBlur stdDeviation="2"/>
<feComposite in2="hardAlpha" operator="arithmetic" k2="-1" k3="1"/>
<feColorMatrix type="matrix" values="0 0 0 0 0 0 0 0 0 0 0 0 0 0 0 0 0 0 0.25 0"/>
<feBlend mode="normal" in2="shape" result="effect1_innerShadow_186_841"/>
</filter>
</defs>
</svg>
